<svg xmlns="http://www.w3.org/2000/svg" xmlns:xlink="http://www.w3.org/1999/xlink" width="146" zoomAndPan="magnify" viewBox="0 0 109.5 80.249996" height="107" preserveAspectRatio="xMidYMid meet" version="1.0"><defs><filter x="0%" y="0%" width="100%" height="100%" id="a7ac0338f6"><feColorMatrix values="0 0 0 0 1 0 0 0 0 1 0 0 0 0 1 0 0 0 1 0" color-interpolation-filters="sRGB"/></filter><g/><clipPath id="a3b428d7dd"><path d="M 54 0 L 90.957031 0 L 90.957031 57 L 54 57 Z M 54 0 " clip-rule="nonzero"/></clipPath><clipPath id="194b92c8f9"><path d="M 17.929688 16 L 55 16 L 55 71.628906 L 17.929688 71.628906 Z M 17.929688 16 " clip-rule="nonzero"/></clipPath><clipPath id="0ded103efc"><path d="M 26 20 L 50 20 L 50 55.886719 L 26 55.886719 Z M 26 20 " clip-rule="nonzero"/></clipPath><clipPath id="aa10fbc90d"><path d="M 59 20 L 82.949219 20 L 82.949219 55.886719 L 59 55.886719 Z M 59 20 " clip-rule="nonzero"/></clipPath><clipPath id="955f639d55"><path d="M 88 59 L 108.085938 59 L 108.085938 78.894531 L 88 78.894531 Z M 88 59 " clip-rule="nonzero"/></clipPath><mask id="094e73cf04"><g filter="url(#a7ac0338f6)"><rect x="-10.95" width="131.4" fill="#000000" y="-8.025" height="96.299995" fill-opacity="0.3"/></g></mask><clipPath id="e063125fca"><path d="M 0.0976562 1 L 6.992188 1 L 6.992188 4.949219 L 0.0976562 4.949219 Z M 0.0976562 1 " clip-rule="nonzero"/></clipPath><clipPath id="f511ba16bd"><rect x="0" width="7" y="0" height="5"/></clipPath><clipPath id="53267a645f"><path d="M 0.816406 59 L 21 59 L 21 78.894531 L 0.816406 78.894531 Z M 0.816406 59 " clip-rule="nonzero"/></clipPath><mask id="f310a8f3a4"><g filter="url(#a7ac0338f6)"><rect x="-10.95" width="131.4" fill="#000000" y="-8.025" height="96.299995" fill-opacity="0.3"/></g></mask><clipPath id="c130f55af9"><path d="M 1 1 L 8 1 L 8 4.949219 L 1 4.949219 Z M 1 1 " clip-rule="nonzero"/></clipPath><clipPath id="792ddde4c5"><rect x="0" width="9" y="0" height="5"/></clipPath><clipPath id="f420b41005"><path d="M 10 47.445312 L 99 47.445312 L 99 72 L 10 72 Z M 10 47.445312 " clip-rule="nonzero"/></clipPath></defs><g clip-path="url(#a3b428d7dd)"><path fill="#19235d" d="M 54.476562 0.0273438 L 55.089844 0.0234375 L 55.398438 0.0195312 L 55.703125 0.0273438 L 56.316406 0.0390625 L 56.925781 0.0664062 L 57.234375 0.078125 L 57.539062 0.101562 L 58.152344 0.144531 L 58.761719 0.203125 L 59.066406 0.230469 L 59.371094 0.269531 C 59.574219 0.292969 59.777344 0.316406 59.980469 0.34375 L 60.585938 0.433594 C 60.6875 0.449219 60.789062 0.464844 60.890625 0.480469 L 61.191406 0.535156 L 61.496094 0.585938 C 61.597656 0.605469 61.699219 0.617188 61.800781 0.640625 C 62.199219 0.722656 62.601562 0.796875 63 0.890625 L 63.300781 0.960938 L 63.453125 0.992188 L 63.601562 1.03125 L 64.195312 1.179688 C 67.394531 2.023438 70.417969 3.285156 73.269531 4.964844 C 73.621094 5.179688 73.976562 5.386719 74.320312 5.613281 C 74.671875 5.832031 75.011719 6.066406 75.351562 6.292969 C 75.523438 6.410156 75.6875 6.53125 75.859375 6.648438 L 76.109375 6.828125 L 76.359375 7.011719 C 76.523438 7.136719 76.691406 7.257812 76.855469 7.382812 L 77.339844 7.765625 C 77.984375 8.277344 78.617188 8.8125 79.226562 9.367188 L 79.453125 9.578125 C 79.53125 9.648438 79.605469 9.71875 79.679688 9.789062 L 80.128906 10.21875 C 80.417969 10.511719 80.71875 10.796875 81 11.101562 C 83.300781 13.507812 85.234375 16.183594 86.796875 19.128906 C 88.347656 22.058594 89.535156 25.191406 90.257812 28.445312 L 90.382812 29.058594 L 90.445312 29.363281 L 90.5 29.671875 L 90.609375 30.285156 L 90.703125 30.902344 C 90.71875 31.007812 90.734375 31.109375 90.746094 31.214844 L 90.785156 31.523438 C 90.808594 31.730469 90.835938 31.9375 90.859375 32.144531 L 90.914062 32.765625 C 90.925781 32.871094 90.9375 32.972656 90.941406 33.078125 L 90.960938 33.390625 C 90.976562 33.597656 90.992188 33.804688 91 34.011719 L 91.023438 34.636719 C 91.023438 34.742188 91.03125 34.84375 91.03125 34.949219 L 91.035156 35.261719 C 91.035156 35.46875 91.039062 35.679688 91.035156 35.886719 C 91.03125 36.71875 90.988281 37.550781 90.921875 38.382812 C 90.851562 39.210938 90.753906 40.039062 90.625 40.859375 C 90.492188 41.679688 90.335938 42.5 90.144531 43.308594 C 89.953125 44.117188 89.738281 44.917969 89.488281 45.710938 L 89.296875 46.300781 C 89.265625 46.398438 89.230469 46.496094 89.195312 46.597656 L 89.09375 46.890625 L 89.042969 47.035156 L 88.988281 47.183594 L 88.878906 47.472656 C 88.808594 47.667969 88.730469 47.859375 88.65625 48.054688 C 88.046875 49.589844 87.324219 51.074219 86.488281 52.5 C 86.070312 53.210938 85.628906 53.902344 85.160156 54.578125 C 84.691406 55.253906 84.195312 55.910156 83.675781 56.539062 L 83.539062 56.441406 C 83.960938 55.746094 84.363281 55.039062 84.746094 54.324219 C 85.125 53.609375 85.488281 52.886719 85.824219 52.15625 C 86.5 50.695312 87.082031 49.195312 87.566406 47.664062 C 87.628906 47.472656 87.691406 47.28125 87.746094 47.089844 L 87.875 46.65625 L 87.914062 46.511719 C 87.964844 46.320312 88.023438 46.128906 88.074219 45.933594 L 88.222656 45.355469 C 88.414062 44.578125 88.585938 43.796875 88.730469 43.011719 C 88.871094 42.226562 88.992188 41.4375 89.085938 40.648438 L 89.152344 40.054688 C 89.171875 39.855469 89.1875 39.65625 89.207031 39.460938 L 89.230469 39.164062 L 89.253906 38.863281 C 89.257812 38.765625 89.265625 38.667969 89.273438 38.566406 L 89.304688 37.972656 C 89.3125 37.871094 89.3125 37.773438 89.316406 37.671875 L 89.328125 37.375 L 89.335938 37.078125 L 89.347656 36.480469 L 89.347656 35.882812 C 89.335938 35.089844 89.316406 34.292969 89.261719 33.5 L 89.242188 33.203125 C 89.238281 33.105469 89.226562 33.003906 89.21875 32.90625 L 89.167969 32.3125 C 89.160156 32.214844 89.148438 32.117188 89.136719 32.015625 L 89.101562 31.71875 L 89.070312 31.421875 C 89.058594 31.324219 89.046875 31.226562 89.03125 31.128906 L 88.957031 30.539062 L 88.871094 29.945312 L 88.828125 29.652344 L 88.773438 29.355469 L 88.671875 28.769531 C 88.375 27.199219 87.976562 25.660156 87.472656 24.144531 C 87.347656 23.765625 87.207031 23.394531 87.074219 23.015625 C 87.003906 22.832031 86.929688 22.644531 86.855469 22.460938 L 86.75 22.179688 L 86.632812 21.90625 C 86.332031 21.164062 85.988281 20.441406 85.632812 19.726562 C 82.757812 14.015625 78.289062 9.097656 72.84375 5.660156 C 71.476562 4.800781 70.058594 4.035156 68.589844 3.371094 L 68.316406 3.242188 C 68.222656 3.199219 68.128906 3.164062 68.039062 3.125 L 67.480469 2.886719 L 66.917969 2.660156 L 66.636719 2.550781 L 66.355469 2.445312 C 66.164062 2.375 65.976562 2.304688 65.785156 2.234375 L 65.210938 2.039062 C 65.023438 1.972656 64.828125 1.914062 64.636719 1.851562 L 64.347656 1.761719 L 64.203125 1.714844 C 64.15625 1.699219 64.105469 1.6875 64.058594 1.671875 L 63.476562 1.503906 L 63.328125 1.464844 L 63.183594 1.425781 L 62.886719 1.351562 C 62.5 1.242188 62.105469 1.15625 61.710938 1.0625 C 61.613281 1.039062 61.515625 1.019531 61.414062 0.996094 L 61.117188 0.9375 L 60.820312 0.875 C 60.722656 0.851562 60.621094 0.835938 60.523438 0.816406 L 59.925781 0.707031 C 59.722656 0.675781 59.523438 0.644531 59.324219 0.613281 L 59.023438 0.5625 L 58.121094 0.445312 L 57.515625 0.378906 L 57.210938 0.347656 L 56.910156 0.324219 L 56.304688 0.273438 L 55.695312 0.242188 L 55.390625 0.222656 L 55.085938 0.214844 L 54.476562 0.195312 Z M 54.476562 0.0273438 " fill-opacity="1" fill-rule="nonzero"/></g><g clip-path="url(#194b92c8f9)"><path fill="#19235d" d="M 54.476562 71.617188 L 53.882812 71.625 L 53.585938 71.625 C 53.484375 71.625 53.386719 71.621094 53.285156 71.621094 L 52.6875 71.609375 C 52.492188 71.605469 52.292969 71.59375 52.09375 71.585938 C 51.695312 71.570312 51.296875 71.535156 50.902344 71.511719 C 50.804688 71.503906 50.703125 71.492188 50.601562 71.484375 L 50.304688 71.457031 C 50.109375 71.4375 49.910156 71.421875 49.710938 71.394531 L 49.117188 71.320312 C 49.019531 71.3125 48.921875 71.296875 48.824219 71.28125 L 48.527344 71.238281 C 48.132812 71.183594 47.742188 71.109375 47.347656 71.039062 C 46.5625 70.890625 45.78125 70.730469 45.007812 70.527344 C 44.621094 70.433594 44.238281 70.320312 43.851562 70.214844 C 43.753906 70.191406 43.660156 70.160156 43.566406 70.128906 L 43.277344 70.042969 L 42.992188 69.953125 C 42.894531 69.925781 42.800781 69.890625 42.707031 69.859375 L 42.136719 69.667969 C 41.949219 69.605469 41.761719 69.535156 41.574219 69.464844 L 41.292969 69.363281 C 41.199219 69.328125 41.105469 69.292969 41.011719 69.253906 L 40.453125 69.035156 C 38.964844 68.433594 37.523438 67.734375 36.128906 66.9375 C 30.550781 63.765625 25.835938 59.046875 22.652344 53.421875 L 22.5 53.160156 L 22.355469 52.894531 L 22.066406 52.359375 L 21.789062 51.820312 C 21.746094 51.730469 21.695312 51.640625 21.652344 51.550781 L 21.523438 51.277344 C 21.160156 50.554688 20.839844 49.8125 20.527344 49.066406 L 20.300781 48.5 L 20.191406 48.21875 L 19.980469 47.648438 L 19.921875 47.507812 L 19.875 47.363281 L 19.675781 46.789062 C 19.421875 46.019531 19.183594 45.242188 18.984375 44.457031 C 18.574219 42.882812 18.285156 41.289062 18.113281 39.671875 C 18.03125 38.863281 17.96875 38.054688 17.949219 37.242188 L 17.9375 36.785156 C 17.9375 36.734375 17.9375 36.683594 17.9375 36.632812 L 17.933594 36.023438 C 17.929688 35.824219 17.941406 35.621094 17.945312 35.417969 L 17.964844 34.808594 C 18.101562 31.554688 18.695312 28.382812 19.742188 25.296875 C 20.261719 23.773438 20.894531 22.292969 21.632812 20.859375 L 21.917969 20.332031 L 22.058594 20.066406 C 22.105469 19.976562 22.152344 19.890625 22.203125 19.804688 L 22.507812 19.285156 C 22.613281 19.113281 22.710938 18.941406 22.816406 18.773438 C 23.03125 18.433594 23.25 18.097656 23.46875 17.765625 C 23.695312 17.4375 23.925781 17.109375 24.160156 16.789062 L 24.296875 16.875 C 24.121094 17.230469 23.9375 17.582031 23.757812 17.933594 L 23.242188 19.003906 L 22.761719 20.082031 C 22.722656 20.171875 22.683594 20.261719 22.648438 20.355469 L 22.535156 20.625 L 22.3125 21.171875 C 21.734375 22.628906 21.246094 24.113281 20.847656 25.632812 C 20.054688 28.652344 19.636719 31.726562 19.597656 34.851562 L 19.597656 35.433594 C 19.597656 35.628906 19.59375 35.820312 19.601562 36.015625 L 19.613281 36.597656 C 19.613281 36.644531 19.613281 36.695312 19.617188 36.742188 L 19.625 36.886719 L 19.636719 37.175781 L 19.652344 37.46875 L 19.65625 37.613281 L 19.667969 37.757812 L 19.707031 38.335938 C 19.710938 38.433594 19.71875 38.53125 19.730469 38.625 L 19.753906 38.914062 L 19.78125 39.203125 C 19.789062 39.300781 19.796875 39.398438 19.808594 39.492188 C 19.972656 41.03125 20.210938 42.566406 20.558594 44.074219 C 20.722656 44.832031 20.925781 45.582031 21.140625 46.328125 L 21.308594 46.882812 L 21.351562 47.023438 L 21.398438 47.160156 L 21.578125 47.714844 L 21.625 47.851562 L 21.675781 47.988281 L 21.871094 48.539062 C 22.144531 49.265625 22.433594 49.988281 22.757812 50.695312 L 22.875 50.960938 C 22.914062 51.050781 22.960938 51.136719 23 51.226562 L 23.253906 51.753906 L 23.519531 52.273438 L 23.652344 52.53125 L 23.792969 52.789062 L 24.070312 53.300781 L 24.363281 53.808594 C 24.410156 53.890625 24.457031 53.976562 24.507812 54.058594 L 24.8125 54.558594 C 24.863281 54.640625 24.914062 54.726562 24.96875 54.808594 C 25.179688 55.132812 25.386719 55.464844 25.605469 55.785156 L 25.851562 56.148438 L 25.9375 56.265625 L 26.277344 56.742188 C 26.332031 56.824219 26.390625 56.902344 26.449219 56.980469 L 26.625 57.214844 C 26.742188 57.371094 26.855469 57.527344 26.980469 57.679688 L 27.339844 58.140625 C 27.460938 58.289062 27.589844 58.441406 27.710938 58.589844 L 27.898438 58.816406 L 28.089844 59.039062 L 28.472656 59.480469 L 28.867188 59.914062 C 28.929688 59.984375 28.996094 60.058594 29.0625 60.128906 L 29.265625 60.34375 C 29.800781 60.914062 30.359375 61.457031 30.929688 61.992188 L 31.363281 62.386719 C 31.4375 62.453125 31.511719 62.515625 31.585938 62.582031 L 31.804688 62.773438 L 32.027344 62.964844 C 32.101562 63.03125 32.175781 63.089844 32.253906 63.152344 L 32.703125 63.527344 C 36.40625 66.539062 40.554688 68.707031 45.136719 70.035156 C 45.894531 70.261719 46.660156 70.449219 47.425781 70.621094 C 47.8125 70.703125 48.199219 70.789062 48.585938 70.855469 L 48.878906 70.90625 C 48.976562 70.925781 49.070312 70.945312 49.167969 70.960938 L 49.753906 71.050781 C 49.949219 71.085938 50.148438 71.109375 50.339844 71.136719 L 50.636719 71.175781 C 50.734375 71.1875 50.832031 71.203125 50.929688 71.210938 C 51.320312 71.25 51.714844 71.300781 52.109375 71.328125 C 52.304688 71.34375 52.5 71.363281 52.699219 71.375 L 53.292969 71.410156 C 53.390625 71.414062 53.488281 71.421875 53.589844 71.425781 L 53.882812 71.433594 L 54.476562 71.453125 Z M 54.476562 71.617188 " fill-opacity="1" fill-rule="nonzero"/></g><g clip-path="url(#0ded103efc)"><path fill="#19235d" d="M 26 55.941406 C 29.5625 54.652344 38.175781 52.375 49.347656 54.976562 C 45.816406 52.996094 39.660156 51.195312 29.585938 52.835938 L 28.152344 53.066406 L 28.152344 20.785156 C 27.574219 20.78125 26.808594 20.796875 26 20.835938 L 26 55.941406 " fill-opacity="1" fill-rule="nonzero"/></g><path fill="#19235d" d="M 53.25 54.613281 L 53.25 23.484375 C 52.238281 22.144531 46.457031 15.730469 30.621094 18.003906 L 30.621094 50.183594 C 32.992188 49.859375 35.160156 49.714844 37.128906 49.714844 C 45.757812 49.714844 50.699219 52.457031 53.25 54.613281 " fill-opacity="1" fill-rule="nonzero"/><g clip-path="url(#aa10fbc90d)"><path fill="#19235d" d="M 82.96875 55.941406 L 82.96875 20.835938 C 82.160156 20.796875 81.394531 20.78125 80.816406 20.785156 L 80.816406 53.066406 L 79.382812 52.835938 C 69.289062 51.1875 63.136719 52.996094 59.605469 54.980469 C 70.785156 52.371094 79.402344 54.652344 82.96875 55.941406 " fill-opacity="1" fill-rule="nonzero"/></g><path fill="#19235d" d="M 78.347656 50.183594 L 78.347656 18.003906 C 62.503906 15.722656 56.746094 22.132812 55.71875 23.488281 L 55.71875 54.613281 C 58.855469 51.964844 65.601562 48.4375 78.347656 50.183594 " fill-opacity="1" fill-rule="nonzero"/><path fill="#df7526" d="M 49.585938 65.140625 C 49.226562 65.15625 48.867188 65.175781 48.503906 65.195312 C 48.867188 65.175781 49.226562 65.15625 49.585938 65.140625 Z M 49.585938 65.140625 " fill-opacity="1" fill-rule="nonzero"/><path fill="#df7526" d="M 52.042969 65.070312 C 51.378906 65.082031 50.71875 65.105469 50.058594 65.128906 C 50.71875 65.105469 51.378906 65.082031 52.042969 65.070312 Z M 52.042969 65.070312 " fill-opacity="1" fill-rule="nonzero"/><path fill="#df7526" d="M 52.363281 65.066406 C 53.070312 65.054688 53.777344 65.042969 54.484375 65.042969 C 53.78125 65.046875 53.070312 65.054688 52.363281 65.066406 Z M 52.363281 65.066406 " fill-opacity="1" fill-rule="nonzero"/><path fill="#df7526" d="M 47.117188 65.261719 C 47.058594 65.261719 47.003906 65.269531 46.945312 65.273438 C 47.003906 65.269531 47.058594 65.265625 47.117188 65.261719 Z M 47.117188 65.261719 " fill-opacity="1" fill-rule="nonzero"/><g clip-path="url(#955f639d55)"><path fill="#df7526" d="M 93.519531 71.992188 C 93.042969 73.335938 91.765625 74.25 90.332031 74.25 C 90.316406 74.25 90.296875 74.25 90.28125 74.25 L 88.441406 74.222656 L 103.441406 78.507812 L 101.679688 69.097656 L 108.148438 62.039062 L 97.746094 59.066406 L 93.542969 72 Z M 93.519531 71.992188 " fill-opacity="1" fill-rule="nonzero"/></g><path fill="#df7526" d="M 90.683594 73.507812 C 90.632812 73.515625 90.582031 73.523438 90.527344 73.527344 C 90.578125 73.523438 90.632812 73.515625 90.683594 73.507812 Z M 90.683594 73.507812 " fill-opacity="1" fill-rule="nonzero"/><path fill="#df7526" d="M 90.292969 73.535156 C 90.304688 73.535156 90.316406 73.535156 90.332031 73.535156 C 90.378906 73.535156 90.429688 73.53125 90.480469 73.527344 C 90.410156 73.53125 90.34375 73.535156 90.273438 73.53125 Z M 90.292969 73.535156 " fill-opacity="1" fill-rule="nonzero"/><path fill="#df7526" d="M 86.507812 72.484375 L 86.226562 73.476562 L 90.273438 73.535156 C 90.34375 73.535156 90.410156 73.53125 90.480469 73.53125 C 90.496094 73.53125 90.511719 73.53125 90.527344 73.527344 C 90.582031 73.523438 90.632812 73.515625 90.683594 73.511719 C 91.664062 73.382812 92.5 72.714844 92.839844 71.777344 C 90.964844 71.175781 89.082031 70.621094 87.1875 70.109375 Z M 86.507812 72.484375 " fill-opacity="1" fill-rule="nonzero"/><g mask="url(#094e73cf04)"><g transform="matrix(1, 0, 0, 1, 86, 69)"><g clip-path="url(#f511ba16bd)"><g clip-path="url(#e063125fca)"><path fill="#df7526" d="M 0.507812 3.484375 L 0.226562 4.476562 L 4.273438 4.535156 C 4.34375 4.535156 4.410156 4.53125 4.480469 4.53125 C 4.496094 4.53125 4.511719 4.53125 4.527344 4.527344 C 4.582031 4.523438 4.632812 4.515625 4.683594 4.511719 C 5.664062 4.382812 6.5 3.714844 6.839844 2.777344 C 4.964844 2.175781 3.082031 1.621094 1.1875 1.109375 Z M 0.507812 3.484375 " fill-opacity="1" fill-rule="nonzero"/></g></g></g></g><path fill="#df7526" d="M 87.1875 70.105469 L 86.507812 72.484375 Z M 87.1875 70.105469 " fill-opacity="1" fill-rule="nonzero"/><g clip-path="url(#53267a645f)"><path fill="#df7526" d="M 7.382812 69.421875 L 5.742188 78.855469 L 20.683594 74.371094 L 18.84375 74.421875 C 18.8125 74.421875 18.78125 74.421875 18.75 74.421875 C 17.261719 74.421875 15.9375 73.445312 15.507812 72.011719 L 15.5 71.984375 L 15.464844 71.996094 L 11.335938 59.292969 L 0.816406 62.449219 Z M 7.382812 69.421875 " fill-opacity="1" fill-rule="nonzero"/></g><path fill="#df7526" d="M 18.597656 73.707031 C 18.671875 73.710938 18.746094 73.710938 18.824219 73.710938 L 22.886719 73.597656 L 18.8125 73.710938 C 18.738281 73.710938 18.667969 73.710938 18.597656 73.707031 Z M 18.597656 73.707031 " fill-opacity="1" fill-rule="nonzero"/><path fill="#df7526" d="M 18.597656 73.707031 C 18.667969 73.710938 18.738281 73.710938 18.808594 73.710938 L 22.886719 73.597656 L 21.835938 70.101562 C 19.941406 70.613281 18.054688 71.167969 16.179688 71.769531 L 16.191406 71.808594 C 16.511719 72.890625 17.484375 73.644531 18.597656 73.707031 Z M 18.597656 73.707031 " fill-opacity="1" fill-rule="nonzero"/><g mask="url(#f310a8f3a4)"><g transform="matrix(1, 0, 0, 1, 15, 69)"><g clip-path="url(#792ddde4c5)"><g clip-path="url(#c130f55af9)"><path fill="#df7526" d="M 3.597656 4.707031 C 3.667969 4.710938 3.738281 4.710938 3.808594 4.710938 L 7.886719 4.597656 L 6.835938 1.101562 C 4.941406 1.613281 3.054688 2.167969 1.179688 2.769531 L 1.191406 2.808594 C 1.511719 3.890625 2.484375 4.644531 3.597656 4.707031 Z M 3.597656 4.707031 " fill-opacity="1" fill-rule="nonzero"/></g></g></g></g><g clip-path="url(#f420b41005)"><path fill="#df7526" d="M 93.082031 71.101562 L 98.378906 54.808594 C 84.179688 50.234375 69.417969 47.917969 54.503906 47.917969 C 39.585938 47.917969 24.824219 50.234375 10.628906 54.808594 L 15.921875 71.101562 C 26.003906 67.855469 36.40625 65.90625 46.945312 65.273438 C 47.003906 65.269531 47.058594 65.265625 47.117188 65.261719 C 47.582031 65.234375 48.042969 65.214844 48.507812 65.195312 C 48.867188 65.175781 49.226562 65.15625 49.585938 65.140625 C 49.742188 65.132812 49.902344 65.132812 50.058594 65.125 C 50.722656 65.101562 51.382812 65.082031 52.046875 65.070312 C 52.152344 65.066406 52.257812 65.066406 52.363281 65.066406 C 53.074219 65.054688 53.78125 65.042969 54.488281 65.042969 C 54.492188 65.042969 54.5 65.042969 54.503906 65.042969 C 67.621094 65.046875 80.597656 67.082031 93.082031 71.101562 Z M 93.082031 71.101562 " fill-opacity="1" fill-rule="nonzero"/><path fill="#df7526" d="M 54.484375 65.046875 C 53.777344 65.046875 53.070312 65.054688 52.363281 65.070312 C 52.257812 65.070312 52.148438 65.070312 52.042969 65.070312 C 51.378906 65.082031 50.71875 65.105469 50.058594 65.128906 C 49.902344 65.132812 49.742188 65.136719 49.585938 65.144531 C 49.226562 65.15625 48.867188 65.179688 48.503906 65.195312 C 48.042969 65.21875 47.578125 65.238281 47.117188 65.261719 C 47.058594 65.265625 47.003906 65.269531 46.945312 65.277344 C 36.402344 65.90625 26 67.859375 15.917969 71.101562 L 10.628906 54.808594 C 24.824219 50.234375 39.585938 47.917969 54.503906 47.917969 C 69.421875 47.917969 84.183594 50.234375 98.378906 54.808594 L 93.082031 71.101562 C 80.597656 67.082031 67.621094 65.046875 54.503906 65.046875 C 54.5 65.046875 54.492188 65.046875 54.484375 65.046875 Z M 54.484375 65.046875 " fill-opacity="1" fill-rule="nonzero"/></g><g fill="#ffffff" fill-opacity="1"><g transform="translate(16.202644, 65.830457)"><g><path d="M 4.546875 -5.59375 L 3.28125 -5.203125 C 3.125 -5.503906 2.90625 -5.710938 2.625 -5.828125 C 2.34375 -5.953125 2.03125 -5.957031 1.6875 -5.84375 C 1.226562 -5.707031 0.910156 -5.429688 0.734375 -5.015625 C 0.566406 -4.597656 0.578125 -4.078125 0.765625 -3.453125 C 0.960938 -2.828125 1.25 -2.390625 1.625 -2.140625 C 2.007812 -1.898438 2.425781 -1.847656 2.875 -1.984375 C 3.195312 -2.085938 3.445312 -2.257812 3.625 -2.5 C 3.800781 -2.75 3.867188 -3.039062 3.828125 -3.375 L 5.09375 -3.765625 C 5.15625 -3.390625 5.128906 -3.007812 5.015625 -2.625 C 4.910156 -2.25 4.703125 -1.90625 4.390625 -1.59375 C 4.078125 -1.28125 3.671875 -1.046875 3.171875 -0.890625 C 2.648438 -0.734375 2.144531 -0.707031 1.65625 -0.8125 C 1.175781 -0.914062 0.742188 -1.15625 0.359375 -1.53125 C -0.015625 -1.914062 -0.300781 -2.425781 -0.5 -3.0625 C -0.695312 -3.707031 -0.742188 -4.289062 -0.640625 -4.8125 C -0.535156 -5.34375 -0.3125 -5.789062 0.03125 -6.15625 C 0.375 -6.519531 0.804688 -6.78125 1.328125 -6.9375 C 1.785156 -7.070312 2.21875 -7.113281 2.625 -7.0625 C 3.039062 -7.019531 3.410156 -6.875 3.734375 -6.625 C 4.066406 -6.375 4.335938 -6.03125 4.546875 -5.59375 Z M 4.546875 -5.59375 "/></g></g></g><g fill="#ffffff" fill-opacity="1"><g transform="translate(22.177359, 64.012087)"><g><path d="M 0.515625 -0.125 L -1.03125 -6.09375 L 0.234375 -6.421875 L 1.515625 -1.5 L 4.078125 -2.171875 L 4.34375 -1.125 Z M 0.515625 -0.125 "/></g></g></g><g fill="#ffffff" fill-opacity="1"><g transform="translate(26.706568, 62.825551)"><g><path d="M 3 -6.9375 L 4.265625 -7.21875 L 5.09375 -3.21875 C 5.195312 -2.757812 5.171875 -2.347656 5.015625 -1.984375 C 4.867188 -1.617188 4.625 -1.3125 4.28125 -1.0625 C 3.945312 -0.820312 3.535156 -0.648438 3.046875 -0.546875 C 2.554688 -0.441406 2.101562 -0.429688 1.6875 -0.515625 C 1.269531 -0.609375 0.921875 -0.789062 0.640625 -1.0625 C 0.367188 -1.332031 0.179688 -1.695312 0.078125 -2.15625 L -0.75 -6.15625 L 0.53125 -6.421875 L 1.359375 -2.46875 C 1.421875 -2.144531 1.585938 -1.914062 1.859375 -1.78125 C 2.140625 -1.65625 2.457031 -1.628906 2.8125 -1.703125 C 3.164062 -1.773438 3.4375 -1.925781 3.625 -2.15625 C 3.820312 -2.382812 3.890625 -2.660156 3.828125 -2.984375 Z M 3 -6.9375 "/></g></g></g><g fill="#ffffff" fill-opacity="1"><g transform="translate(32.623195, 61.582946)"><g><path d="M 0.53125 -0.078125 L -0.453125 -6.171875 L 1.984375 -6.578125 C 2.660156 -6.679688 3.191406 -6.613281 3.578125 -6.375 C 3.960938 -6.144531 4.191406 -5.800781 4.265625 -5.34375 C 4.328125 -4.988281 4.269531 -4.679688 4.09375 -4.421875 C 3.914062 -4.160156 3.675781 -3.96875 3.375 -3.84375 L 3.375 -3.78125 C 3.625 -3.8125 3.851562 -3.78125 4.0625 -3.6875 C 4.28125 -3.601562 4.472656 -3.460938 4.640625 -3.265625 C 4.804688 -3.066406 4.914062 -2.820312 4.96875 -2.53125 C 5.019531 -2.207031 4.984375 -1.90625 4.859375 -1.625 C 4.742188 -1.34375 4.539062 -1.101562 4.25 -0.90625 C 3.957031 -0.707031 3.582031 -0.570312 3.125 -0.5 Z M 1.640625 -1.34375 L 2.703125 -1.515625 C 3.054688 -1.566406 3.304688 -1.675781 3.453125 -1.84375 C 3.597656 -2.007812 3.648438 -2.207031 3.609375 -2.4375 C 3.566406 -2.6875 3.441406 -2.878906 3.234375 -3.015625 C 3.035156 -3.148438 2.785156 -3.191406 2.484375 -3.140625 L 1.390625 -2.96875 Z M 1.234375 -3.84375 L 2.203125 -4 C 2.453125 -4.039062 2.65625 -4.140625 2.8125 -4.296875 C 2.96875 -4.460938 3.023438 -4.664062 2.984375 -4.90625 C 2.953125 -5.125 2.847656 -5.285156 2.671875 -5.390625 C 2.492188 -5.503906 2.265625 -5.539062 1.984375 -5.5 L 1 -5.34375 Z M 1.234375 -3.84375 "/></g></g></g><g fill="#ffffff" fill-opacity="1"><g transform="translate(38.029927, 60.714162)"><g><path d="M 0.53125 -0.0625 L -0.1875 -6.1875 L 3.9375 -6.671875 L 4.0625 -5.609375 L 1.234375 -5.28125 L 1.40625 -3.8125 L 4.03125 -4.109375 L 4.15625 -3.046875 L 1.53125 -2.75 L 1.703125 -1.296875 L 4.546875 -1.625 L 4.671875 -0.546875 Z M 0.53125 -0.0625 "/></g></g></g><g fill="#ffffff" fill-opacity="1"><g transform="translate(43.10775, 60.146244)"><g/></g></g><g fill="#ffffff" fill-opacity="1"><g transform="translate(44.967373, 59.948244)"><g><path d="M 2.71875 -0.140625 L 0.53125 -0.03125 L 0.203125 -6.1875 L 2.40625 -6.296875 C 3.03125 -6.335938 3.570312 -6.25 4.03125 -6.03125 C 4.488281 -5.8125 4.847656 -5.476562 5.109375 -5.03125 C 5.378906 -4.582031 5.53125 -4.039062 5.5625 -3.40625 C 5.601562 -2.757812 5.515625 -2.195312 5.296875 -1.71875 C 5.078125 -1.238281 4.75 -0.863281 4.3125 -0.59375 C 3.875 -0.332031 3.34375 -0.179688 2.71875 -0.140625 Z M 1.78125 -1.21875 L 2.609375 -1.265625 C 3.191406 -1.296875 3.625 -1.472656 3.90625 -1.796875 C 4.1875 -2.128906 4.304688 -2.640625 4.265625 -3.328125 C 4.234375 -4.015625 4.0625 -4.503906 3.75 -4.796875 C 3.4375 -5.085938 2.988281 -5.21875 2.40625 -5.1875 L 1.578125 -5.140625 Z M 1.78125 -1.21875 "/></g></g></g><g fill="#ffffff" fill-opacity="1"><g transform="translate(50.991715, 59.63349)"><g><path d="M 0.53125 0 L 0.484375 -6.171875 L 4.640625 -6.203125 L 4.65625 -5.125 L 1.8125 -5.109375 L 1.8125 -3.640625 L 4.453125 -3.65625 L 4.46875 -2.578125 L 1.828125 -2.5625 L 1.828125 -1.09375 L 4.6875 -1.109375 L 4.703125 -0.03125 Z M 0.53125 0 "/></g></g></g><g fill="#ffffff" fill-opacity="1"><g transform="translate(56.101173, 59.61824)"><g/></g></g><g fill="#ffffff" fill-opacity="1"><g transform="translate(57.986833, 59.638572)"><g><path d="M 0.53125 0.03125 L 0.828125 -6.140625 L 2.140625 -6.078125 L 1.890625 -0.984375 L 4.53125 -0.859375 L 4.484375 0.21875 Z M 0.53125 0.03125 "/></g></g></g><g fill="#ffffff" fill-opacity="1"><g transform="translate(62.674892, 59.863727)"><g><path d="M 0.53125 0.046875 L 1.09375 -6.09375 L 5.234375 -5.71875 L 5.125 -4.65625 L 2.296875 -4.90625 L 2.171875 -3.4375 L 4.796875 -3.203125 L 4.703125 -2.125 L 2.078125 -2.359375 L 1.9375 -0.90625 L 4.78125 -0.65625 L 4.6875 0.421875 Z M 0.53125 0.046875 "/></g></g></g><g fill="#ffffff" fill-opacity="1"><g transform="translate(67.756901, 60.342941)"><g><path d="M 2.578125 -5.90625 L 1.828125 0.21875 L 0.53125 0.0625 L 1.28125 -6.0625 Z M 2.578125 -5.90625 "/></g></g></g><g fill="#ffffff" fill-opacity="1"><g transform="translate(70.027038, 60.58984)"><g><path d="M 1.078125 -4.984375 L 1.234375 -6.046875 L 6.25 -5.265625 L 6.09375 -4.203125 L 4.21875 -4.5 L 3.4375 0.53125 L 2.15625 0.328125 L 2.9375 -4.703125 Z M 1.078125 -4.984375 "/></g></g></g><g fill="#ffffff" fill-opacity="1"><g transform="translate(75.490663, 61.425696)"><g><path d="M 5.5 -5.171875 L 6.78125 -4.90625 L 5.96875 -0.90625 C 5.875 -0.445312 5.6875 -0.0820312 5.40625 0.1875 C 5.125 0.457031 4.773438 0.632812 4.359375 0.71875 C 3.953125 0.8125 3.503906 0.8125 3.015625 0.71875 C 2.523438 0.613281 2.101562 0.4375 1.75 0.1875 C 1.40625 -0.0507812 1.160156 -0.347656 1.015625 -0.703125 C 0.867188 -1.066406 0.84375 -1.476562 0.9375 -1.9375 L 1.75 -5.9375 L 3.046875 -5.671875 L 2.234375 -1.71875 C 2.171875 -1.394531 2.238281 -1.117188 2.4375 -0.890625 C 2.632812 -0.660156 2.90625 -0.507812 3.25 -0.4375 C 3.601562 -0.363281 3.914062 -0.394531 4.1875 -0.53125 C 4.457031 -0.664062 4.625 -0.894531 4.6875 -1.21875 Z M 5.5 -5.171875 "/></g></g></g><g fill="#ffffff" fill-opacity="1"><g transform="translate(81.413367, 62.641179)"><g><path d="M 0.515625 0.125 L 2.046875 -5.859375 L 4.40625 -5.25 C 5.082031 -5.082031 5.5625 -4.769531 5.84375 -4.3125 C 6.132812 -3.863281 6.207031 -3.34375 6.0625 -2.75 C 5.957031 -2.332031 5.773438 -2.003906 5.515625 -1.765625 C 5.253906 -1.523438 4.9375 -1.367188 4.5625 -1.296875 L 5.234375 1.328125 L 3.84375 0.984375 L 3.25 -1.4375 L 2.328125 -1.671875 L 1.78125 0.453125 Z M 2.578125 -2.6875 L 3.453125 -2.46875 C 4.160156 -2.28125 4.59375 -2.484375 4.75 -3.078125 C 4.90625 -3.691406 4.625 -4.09375 3.90625 -4.28125 L 3.046875 -4.5 Z M 2.578125 -2.6875 "/></g></g></g><g fill="#ffffff" fill-opacity="1"><g transform="translate(86.672754, 63.968301)"><g><path d="M 1.53125 0.46875 L 0.1875 0.0625 L 4.03125 -5.21875 L 5.65625 -4.734375 L 5.875 1.796875 L 4.546875 1.390625 L 4.5 -0.09375 L 2.375 -0.734375 Z M 3 -1.609375 L 4.5 -1.15625 L 4.46875 -3.625 L 4.421875 -3.640625 Z M 3 -1.609375 "/></g></g></g></svg>