<svg width="43" height="31" viewBox="0 0 43 31" fill="none" xmlns="http://www.w3.org/2000/svg">
<path d="M36.1548 22.3311H36.1022C32.4732 25.2218 28.2417 27.2232 23.7344 28.1808C16.4234 29.8061 9.61588 28.8401 5.96415 25.6431C5.17538 24.9846 4.52617 24.1692 4.05597 23.2466C3.58578 22.324 3.30445 21.3134 3.2291 20.2764C2.78578 14.8483 6.77565 9.24391 13.8913 5.27254L13.9664 5.22653L13.8838 5.01953H13.8161C5.44569 8.45424 -0.4602 14.8636 0.0282012 20.951C0.111726 22.1721 0.433202 23.3638 0.973803 24.4565C1.5144 25.5492 2.26326 26.5208 3.1765 27.3144C7.06117 30.7645 13.9439 31.8378 21.578 30.1741C27.0715 29.0628 32.1515 26.4074 36.245 22.5074L36.3126 22.4384L36.1548 22.3311Z" fill="#003082"/>
<path d="M41.708 7.60231C40.2579 4.29794 37.072 2.05158 32.729 1.27724C25.7185 0.0198933 17.303 3.10193 13.0878 8.08531L13.0352 8.15431L13.1629 8.33832L13.2305 8.24632C16.456 5.68387 20.2768 4.01722 24.321 3.4086C30.4748 2.45025 35.6444 4.0296 38.1314 7.63297C40.6185 11.2363 39.8671 17.8834 36.6888 21.7935L36.6287 21.8701L36.7865 22.0541L36.8541 22.0005C41.693 17.3314 44.0223 12.8464 41.708 7.60231Z" fill="#003082"/>
<path d="M15.8686 17.1227H11.225L10.7516 19.8368H15.9437L15.5079 22.0448H7.74609L9.92511 10.2227H17.3638L16.9355 12.4537H12.0891L11.6383 14.8687H16.2818L15.8686 17.1227Z" fill="#003082"/>
<path d="M20.586 12.4925H17.7383L18.1741 10.2461H28.0323C27.4114 10.4086 26.8518 10.7555 26.4243 11.2428C26.0918 11.5866 25.8624 12.0202 25.7631 12.4925H23.1708L21.4126 22.0452H18.8278L20.586 12.4925Z" fill="#003082"/>
<path d="M25.8383 19.1804C26.785 19.7362 27.8568 20.032 28.949 20.0391C29.8958 20.0391 30.8425 19.6328 30.8425 18.7051C30.8425 18.0688 30.309 17.6547 29.1369 17.1257C27.7994 16.5277 26.4093 15.5924 26.4093 13.898C26.4093 11.46 28.6635 10.0647 31.2182 10.0647C32.2813 10.0182 33.3393 10.2393 34.2989 10.7087L33.4573 12.8477C32.695 12.4581 31.8529 12.2584 31.0003 12.265C29.7605 12.265 29.1594 12.8477 29.1594 13.4074C29.1594 14.174 30.031 14.565 31.0303 15.0404C32.5932 15.7381 33.6226 16.6887 33.6226 18.2528C33.6226 20.9515 31.3084 22.2625 28.6109 22.2625C27.3115 22.3077 26.0271 21.9668 24.9141 21.2811L25.8383 19.1804Z" fill="#003082"/>
<path d="M41.099 24.8536C40.9519 25.0058 40.7764 25.1264 40.5828 25.208C40.3891 25.2897 40.1814 25.3308 39.9719 25.3289C39.7619 25.3344 39.5531 25.295 39.359 25.2131C39.1649 25.1313 38.9897 25.0088 38.8448 24.8536C38.6956 24.7035 38.5775 24.5244 38.4974 24.3268C38.4174 24.1293 38.3771 23.9173 38.379 23.7035C38.379 23.2725 38.5468 22.8591 38.8455 22.5542C39.1443 22.2494 39.5494 22.0782 39.9719 22.0782C40.1814 22.0763 40.3891 22.1174 40.5828 22.1991C40.7764 22.2807 40.9519 22.4013 41.099 22.5535C41.2511 22.7013 41.3711 22.8801 41.4514 23.0781C41.5316 23.2762 41.5703 23.4893 41.5648 23.7035C41.5667 23.9173 41.5264 24.1293 41.4464 24.3268C41.3663 24.5244 41.2482 24.7035 41.099 24.8536ZM39.0026 22.7145C38.8115 22.9107 38.6815 23.1602 38.629 23.4315C38.5764 23.7029 38.6036 23.984 38.7072 24.2396C38.8108 24.4952 38.9861 24.7139 39.2111 24.8682C39.4361 25.0224 39.7008 25.1053 39.9719 25.1066C40.1524 25.1076 40.3313 25.0719 40.4982 25.0017C40.665 24.9315 40.8165 24.828 40.9438 24.6974C41.0711 24.5669 41.1716 24.4117 41.2395 24.2411C41.3075 24.0704 41.3414 23.8877 41.3394 23.7035C41.3394 23.3328 41.1956 22.9771 40.9393 22.7142C40.6831 22.4513 40.3353 22.3026 39.9719 22.3005C39.791 22.2969 39.6113 22.3318 39.4444 22.4031C39.2775 22.4744 39.127 22.5805 39.0026 22.7145ZM39.9418 22.7989C40.1023 22.7941 40.2625 22.8174 40.4152 22.8679C40.5019 22.9037 40.575 22.967 40.6237 23.0484C40.6724 23.1299 40.6942 23.2252 40.6857 23.3202C40.6918 23.3896 40.6788 23.4593 40.6483 23.5215C40.6178 23.5838 40.5709 23.6362 40.5129 23.6729C40.4368 23.7181 40.3524 23.7468 40.2649 23.7572C40.324 23.7649 40.3809 23.7845 40.4325 23.8147C40.4841 23.845 40.5293 23.8854 40.5655 23.9335C40.6218 24.0143 40.6532 24.1104 40.6557 24.2095V24.3475C40.652 24.3909 40.652 24.4345 40.6557 24.4779C40.6494 24.5082 40.6494 24.5395 40.6557 24.5699H40.3701V24.3475C40.3803 24.2709 40.3703 24.193 40.3413 24.1216C40.3122 24.0502 40.2651 23.988 40.2048 23.9412C40.0977 23.897 39.982 23.8787 39.8667 23.8875H39.6188V24.5852H39.3032V22.8142L39.9418 22.7989ZM40.2725 23.0825C40.1529 23.0351 40.0248 23.0141 39.8968 23.0212H39.6338V23.6652H39.9118C40.0088 23.6818 40.1078 23.6818 40.2048 23.6652C40.2607 23.6439 40.3085 23.6049 40.3409 23.5538C40.3734 23.5027 40.3889 23.4423 40.3852 23.3815C40.3992 23.3259 40.3959 23.2672 40.3757 23.2136C40.3555 23.16 40.3194 23.1142 40.2725 23.0825Z" fill="#333333"/>
</svg>
