<svg xmlns="http://www.w3.org/2000/svg" xmlns:xlink="http://www.w3.org/1999/xlink" width="104" zoomAndPan="magnify" viewBox="0 0 78 90.749999" height="121" preserveAspectRatio="xMidYMid meet" version="1.0"><defs><clipPath id="2cf65537df"><path d="M 10.792969 16.605469 L 67.300781 16.605469 L 67.300781 50.933594 L 10.792969 50.933594 Z M 10.792969 16.605469 " clip-rule="nonzero"/></clipPath><clipPath id="7c6af11599"><path d="M 0.40625 0.609375 L 77.507812 0.609375 L 77.507812 89.855469 L 0.40625 89.855469 Z M 0.40625 0.609375 " clip-rule="nonzero"/></clipPath></defs><g clip-path="url(#2cf65537df)"><path fill="#000000" d="M 66.535156 24.722656 L 39.332031 16.648438 C 39.140625 16.589844 38.949219 16.589844 38.761719 16.648438 L 11.558594 24.722656 C 11.34375 24.789062 11.167969 24.910156 11.035156 25.085938 C 10.902344 25.265625 10.835938 25.46875 10.835938 25.691406 C 10.835938 25.914062 10.902344 26.117188 11.035156 26.296875 C 11.167969 26.476562 11.34375 26.597656 11.558594 26.660156 L 38.761719 34.738281 C 38.949219 34.792969 39.140625 34.792969 39.332031 34.738281 L 59.195312 28.839844 L 59.195312 42.855469 C 58.949219 42.855469 58.734375 42.933594 58.546875 43.09375 C 58.359375 43.253906 58.242188 43.457031 58.203125 43.699219 L 57.195312 49.757812 C 57.171875 49.902344 57.179688 50.046875 57.21875 50.191406 C 57.257812 50.332031 57.324219 50.460938 57.421875 50.574219 C 57.515625 50.6875 57.632812 50.777344 57.765625 50.839844 C 57.898438 50.902344 58.042969 50.933594 58.191406 50.933594 L 62.21875 50.933594 C 62.367188 50.933594 62.507812 50.902344 62.644531 50.839844 C 62.777344 50.777344 62.890625 50.6875 62.988281 50.574219 C 63.082031 50.460938 63.152344 50.332031 63.191406 50.191406 C 63.230469 50.046875 63.238281 49.902344 63.214844 49.757812 L 62.207031 43.699219 C 62.164062 43.457031 62.050781 43.253906 61.863281 43.09375 C 61.675781 42.933594 61.457031 42.855469 61.210938 42.855469 L 61.210938 28.242188 L 66.535156 26.660156 C 66.75 26.597656 66.925781 26.476562 67.058594 26.296875 C 67.191406 26.117188 67.257812 25.914062 67.257812 25.691406 C 67.257812 25.46875 67.191406 25.265625 67.058594 25.085938 C 66.925781 24.910156 66.75 24.789062 66.535156 24.722656 Z M 66.535156 24.722656 " fill-opacity="1" fill-rule="nonzero"/></g><path fill="#000000" d="M 39.046875 36.796875 C 38.753906 36.796875 38.46875 36.757812 38.191406 36.671875 L 23.933594 32.441406 L 23.933594 43.863281 C 23.933594 47.332031 31.765625 48.914062 39.046875 48.914062 C 46.324219 48.914062 54.160156 47.332031 54.160156 43.863281 L 54.160156 32.441406 L 39.90625 36.671875 C 39.625 36.757812 39.339844 36.796875 39.046875 36.796875 Z M 39.046875 36.796875 " fill-opacity="1" fill-rule="nonzero"/><path stroke-linecap="butt" transform="matrix(0.264051, 0, 0, 0.264051, 23.122846, 49.259529)" fill="none" stroke-linejoin="miter" d="M 21.251712 29.225577 L 21.251712 94.00658 L 7.552875 94.00658 L 7.552875 29.225577 Z M 43.693544 94.00658 L 29.018332 94.00658 L 51.386196 29.225577 L 69.02012 29.225577 L 91.343604 94.00658 L 76.668391 94.00658 L 71.860484 79.242607 L 48.486658 79.242607 Z M 51.977938 68.532069 L 68.428378 68.532069 L 60.454649 44.033932 L 59.951668 44.033932 Z M 112.823854 29.225577 L 112.823854 94.00658 L 99.125017 94.00658 L 99.125017 29.225577 Z M 112.823854 29.225577 " stroke="#000000" stroke-width="4.23065" stroke-opacity="1" stroke-miterlimit="4"/><g clip-path="url(#7c6af11599)"><path fill="#000000" d="M 77.507812 32.160156 L 75.769531 32.160156 L 75.769531 23.953125 L 38.957031 2.65625 L 2.144531 23.953125 L 2.144531 32.160156 L 0.40625 32.160156 L 0.40625 22.941406 L 38.957031 0.652344 L 77.507812 22.941406 Z M 77.507812 67.519531 L 77.507812 58.300781 L 75.769531 58.300781 L 75.769531 66.511719 L 38.957031 87.789062 L 2.144531 66.511719 L 2.144531 58.300781 L 0.40625 58.300781 L 0.40625 67.519531 L 38.957031 89.8125 Z M 77.507812 67.519531 " fill-opacity="1" fill-rule="nonzero"/></g></svg>