<svg width="52" height="15" viewBox="0 0 52 15" fill="none" xmlns="http://www.w3.org/2000/svg">
<path d="M3.78795 2.33263H0L0.4087 0.239288H10.4069L9.9982 2.33263H6.17038L3.97237 14.0553H1.58994L3.78795 2.33263Z" fill="#003082"/>
<path d="M14.9873 12.271C15.4901 12.2664 15.9868 12.1603 16.4476 11.9591C16.9084 11.7578 17.3238 11.4655 17.6688 11.0998C18.8501 9.91352 19.5229 7.55602 19.5229 5.81157C19.5229 3.98737 18.8899 2.02362 16.363 2.02362C15.8522 2.02838 15.3476 2.13585 14.8792 2.33964C14.4109 2.54343 13.9883 2.83937 13.6366 3.20984C12.4554 4.42099 11.7626 6.69875 11.7626 8.45815C11.7626 10.5465 12.6797 12.271 14.9774 12.271H14.9873ZM14.6434 14.2647C11.0798 14.2647 9.24561 11.638 9.24561 8.56282C9.24561 6.10564 10.1627 3.52384 11.8124 1.92393C13.1112 0.682569 14.8405 -0.00702899 16.6371 5.40278e-05C20.2855 5.40278e-05 22.015 2.58184 22.015 5.71687C22.015 8.17405 21.1378 10.701 19.5528 12.2959C18.9126 12.9335 18.1519 13.4372 17.315 13.7778C16.4781 14.1184 15.5818 14.289 14.6783 14.2796L14.6434 14.2647Z" fill="#003082"/>
<path d="M30.9367 7.90491H26.0074L25.2348 12.0268H30.7772L30.3884 14.0553H22.4636L25.0703 0.239288H32.6911L32.3023 2.26784H27.069L26.3762 5.8963H31.3254L30.9367 7.90491Z" fill="#003082"/>
<path d="M37.1919 0.239288L34.5851 14.0553H32.2227L34.8294 0.239288H37.1919Z" fill="#003082"/>
<path d="M47.1102 13.6416C45.9689 14.0849 44.7504 14.2951 43.5266 14.2597C39.9579 14.2597 37.6802 12.0617 37.6802 8.47806C37.6354 7.36704 37.8193 6.25867 38.2205 5.22165C38.6217 4.18463 39.2317 3.24107 40.0125 2.44947C40.7934 1.65787 41.7285 1.03509 42.76 0.619745C43.7914 0.204402 44.8972 0.00534682 46.0087 0.0349165C47.0405 -0.00614905 48.0668 0.20424 48.9992 0.647965L48.3064 2.57683C47.4934 2.21573 46.6086 2.04525 45.7196 2.07842C44.437 2.0622 43.1939 2.52214 42.2307 3.36931C41.5783 3.98212 41.0632 4.72634 40.7196 5.55284C40.3759 6.37934 40.2114 7.26933 40.237 8.16406C40.237 10.5016 41.4183 12.2261 44.1247 12.2261C45.066 12.2473 46.0019 12.0778 46.8759 11.7277L47.1102 13.6416Z" fill="#003082"/>
<path d="M49.9163 11.7228C49.7958 11.6691 49.6642 11.6451 49.5325 11.653H49.2634V12.3009H49.5674C49.6687 12.3076 49.7704 12.294 49.8665 12.2611C49.9242 12.2422 49.9738 12.2043 50.0073 12.1536C50.0408 12.103 50.0561 12.0425 50.0509 11.982C50.0578 11.9324 50.0507 11.8818 50.0304 11.8361C50.0102 11.7903 49.9776 11.751 49.9362 11.7228H49.9163ZM49.5923 11.4387C49.7611 11.4277 49.9304 11.4497 50.0907 11.5035C50.1801 11.5387 50.2556 11.6019 50.3059 11.6837C50.3563 11.7655 50.3787 11.8614 50.3699 11.957C50.3745 12.0262 50.3608 12.0953 50.3301 12.1574C50.2995 12.2195 50.253 12.2725 50.1954 12.3109C50.1159 12.3569 50.0276 12.3858 49.9362 12.3956C49.9963 12.402 50.0543 12.4207 50.1067 12.4508C50.159 12.4808 50.2045 12.5214 50.2403 12.5701C50.301 12.6509 50.3358 12.7482 50.3399 12.8492V12.9788C50.3375 13.0236 50.3375 13.0685 50.3399 13.1134C50.3319 13.1444 50.3319 13.177 50.3399 13.2081H50.0658V13.0087C50.0658 12.7994 50.011 12.6648 49.8964 12.6C49.7868 12.5516 49.6669 12.5311 49.5475 12.5402H49.2983V13.2479H48.9843V11.4536L49.5923 11.4387ZM48.6404 11.344C48.5077 11.4734 48.403 11.6286 48.3327 11.8001C48.2624 11.9715 48.228 12.1555 48.2317 12.3408C48.2291 12.5255 48.2635 12.7088 48.3329 12.88C48.4022 13.0512 48.505 13.2068 48.6354 13.3376C48.765 13.4709 48.9199 13.5768 49.0912 13.6491C49.2624 13.7214 49.4463 13.7587 49.6322 13.7587C49.8181 13.7587 50.002 13.7214 50.1732 13.6491C50.3445 13.5768 50.4994 13.4709 50.629 13.3376C50.8896 13.0713 51.0355 12.7135 51.0355 12.3408C51.0355 11.9682 50.8896 11.6104 50.629 11.344C50.5 11.2109 50.3448 11.1059 50.1733 11.0355C50.0018 10.9652 49.8175 10.9311 49.6322 10.9353C49.4467 10.9298 49.2621 10.9634 49.0904 11.0338C48.9187 11.1042 48.7637 11.2099 48.6354 11.344H48.6404ZM50.7686 13.4971C50.6185 13.6484 50.4399 13.7685 50.2431 13.8505C50.0464 13.9324 49.8354 13.9746 49.6222 13.9746C49.4091 13.9746 49.1981 13.9324 49.0013 13.8505C48.8046 13.7685 48.626 13.6484 48.4759 13.4971C48.247 13.2698 48.0907 12.9796 48.0269 12.6634C47.963 12.3471 47.9945 12.019 48.1172 11.7207C48.24 11.4223 48.4485 11.1671 48.7165 10.9874C48.9844 10.8076 49.2996 10.7114 49.6222 10.711C49.9449 10.7114 50.2601 10.8076 50.528 10.9874C50.7959 11.1671 51.0045 11.4223 51.1272 11.7207C51.25 12.019 51.2814 12.3471 51.2176 12.6634C51.1538 12.9796 50.9975 13.2698 50.7686 13.4971Z" fill="#003082"/>
</svg>
